<svg width="25" height="25" viewBox="0 0 25 25" fill="none" xmlns="http://www.w3.org/2000/svg">
<path d="M24.3575 23.3377L18.1785 17.1587C19.9405 15.1324 20.847 12.501 20.7067 9.81941C20.5665 7.13778 19.3906 4.61535 17.4268 2.78384C15.4631 0.952324 12.8649 -0.0451885 10.18 0.0015728C7.49514 0.0483341 4.93329 1.13572 3.0345 3.0345C1.13572 4.93329 0.0483341 7.49514 0.0015728 10.18C-0.0451885 12.8649 0.952324 15.4631 2.78384 17.4268C4.61535 19.3906 7.13778 20.5665 9.81941 20.7067C12.501 20.847 15.1324 19.9405 17.1587 18.1785L23.3377 24.3575C23.4745 24.4849 23.6554 24.5543 23.8423 24.551C24.0292 24.5477 24.2076 24.472 24.3398 24.3398C24.472 24.2076 24.5477 24.0292 24.551 23.8423C24.5543 23.6554 24.4849 23.4745 24.3575 23.3377ZM1.47915 10.3784C1.47915 8.61831 2.00108 6.89772 2.97894 5.43425C3.95681 3.97077 5.34668 2.83013 6.97281 2.15656C8.59894 1.483 10.3883 1.30676 12.1146 1.65014C13.8409 1.99352 15.4266 2.8411 16.6712 4.08568C17.9157 5.33027 18.7633 6.91597 19.1067 8.64225C19.4501 10.3685 19.2738 12.1579 18.6003 13.784C17.9267 15.4101 16.7861 16.8 15.3226 17.7779C13.8591 18.7558 12.1385 19.2777 10.3784 19.2777C8.01906 19.2748 5.75716 18.3363 4.08885 16.668C2.42053 14.9997 1.48201 12.7378 1.47915 10.3784Z" fill="white"/>
</svg>
